<svg width="1764" height="588" viewBox="0 0 1764 588" fill="none" xmlns="http://www.w3.org/2000/svg">
<mask id="path-1-inside-1_10_2" fill="white">
<path fill-rule="evenodd" clip-rule="evenodd" d="M651.395 322.646C651.395 389.718 597.022 444.091 529.95 444.091C518.4 444.091 507.226 442.479 496.642 439.467L480.079 468.155C495.718 473.514 512.494 476.423 529.95 476.423C614.878 476.423 683.727 407.575 683.727 322.646C683.727 237.718 614.878 168.87 529.95 168.87C454.585 168.87 391.882 223.086 378.717 294.644H411.749C424.392 241.071 472.515 201.201 529.95 201.201C597.022 201.201 651.395 255.574 651.395 322.646Z"/>
</mask>
<path fill-rule="evenodd" clip-rule="evenodd" d="M651.395 322.646C651.395 389.718 597.022 444.091 529.95 444.091C518.4 444.091 507.226 442.479 496.642 439.467L480.079 468.155C495.718 473.514 512.494 476.423 529.95 476.423C614.878 476.423 683.727 407.575 683.727 322.646C683.727 237.718 614.878 168.87 529.95 168.87C454.585 168.87 391.882 223.086 378.717 294.644H411.749C424.392 241.071 472.515 201.201 529.95 201.201C597.022 201.201 651.395 255.574 651.395 322.646Z" fill="#212121"/>
<path d="M496.642 439.467L501.671 421.793L487.892 417.872L480.729 430.279L496.642 439.467ZM480.079 468.155L464.165 458.968L453.003 478.302L474.122 485.538L480.079 468.155ZM378.717 294.644L360.645 291.32L356.653 313.019H378.717V294.644ZM411.749 294.644V313.019H426.292L429.633 298.865L411.749 294.644ZM529.95 462.466C607.17 462.466 669.77 399.867 669.77 322.646H633.02C633.02 379.57 586.874 425.716 529.95 425.716V462.466ZM491.613 457.14C503.816 460.613 516.682 462.466 529.95 462.466V425.716C520.117 425.716 510.636 424.344 501.671 421.793L491.613 457.14ZM480.729 430.279L464.165 458.968L495.992 477.343L512.555 448.654L480.729 430.279ZM474.122 485.538C491.653 491.545 510.441 494.798 529.95 494.798V458.048C514.547 458.048 499.782 455.483 486.035 450.773L474.122 485.538ZM529.95 494.798C625.027 494.798 702.102 417.723 702.102 322.646H665.352C665.352 397.426 604.73 458.048 529.95 458.048V494.798ZM702.102 322.646C702.102 227.569 625.027 150.495 529.95 150.495V187.245C604.73 187.245 665.352 247.866 665.352 322.646H702.102ZM529.95 150.495C445.559 150.495 375.385 211.199 360.645 291.32L396.789 297.969C408.378 234.973 463.61 187.245 529.95 187.245V150.495ZM378.717 313.019H411.749V276.269H378.717V313.019ZM529.95 182.826C463.801 182.826 408.422 228.744 393.865 290.424L429.633 298.865C440.363 253.399 481.229 219.576 529.95 219.576V182.826ZM669.77 322.646C669.77 245.426 607.17 182.826 529.95 182.826V219.576C586.874 219.576 633.02 265.722 633.02 322.646H669.77Z" fill="black" mask="url(#path-1-inside-1_10_2)"/>
<mask id="path-3-inside-2_10_2" fill="white">
<path fill-rule="evenodd" clip-rule="evenodd" d="M589.021 324.412C589.021 356.061 563.365 381.718 531.716 381.718C531.141 381.718 530.568 381.71 529.998 381.693L512.507 411.987C518.695 413.338 525.122 414.05 531.716 414.05C581.221 414.05 621.353 373.918 621.353 324.412C621.353 274.907 581.221 234.775 531.716 234.775C492.645 234.775 459.413 259.771 447.139 294.644L482.738 294.644C492.795 278.132 510.968 267.106 531.716 267.106C563.365 267.106 589.021 292.763 589.021 324.412Z"/>
</mask>
<path fill-rule="evenodd" clip-rule="evenodd" d="M589.021 324.412C589.021 356.061 563.365 381.718 531.716 381.718C531.141 381.718 530.568 381.71 529.998 381.693L512.507 411.987C518.695 413.338 525.122 414.05 531.716 414.05C581.221 414.05 621.353 373.918 621.353 324.412C621.353 274.907 581.221 234.775 531.716 234.775C492.645 234.775 459.413 259.771 447.139 294.644L482.738 294.644C492.795 278.132 510.968 267.106 531.716 267.106C563.365 267.106 589.021 292.763 589.021 324.412Z" fill="#212121"/>
<path d="M529.998 381.693L530.538 363.326L519.571 363.003L514.084 372.505L529.998 381.693ZM512.507 411.987L496.594 402.799L484.022 424.576L508.588 429.939L512.507 411.987ZM447.139 294.644L429.806 288.544L421.192 313.019H447.139L447.139 294.644ZM482.738 294.644V313.019H493.061L498.431 304.203L482.738 294.644ZM531.716 400.093C573.513 400.093 607.396 366.21 607.396 324.412H570.646C570.646 345.913 553.216 363.343 531.716 363.343V400.093ZM529.457 400.06C530.208 400.082 530.961 400.093 531.716 400.093V363.343C531.321 363.343 530.929 363.337 530.538 363.326L529.457 400.06ZM514.084 372.505L496.594 402.799L528.421 421.174L545.911 390.88L514.084 372.505ZM508.588 429.939C516.055 431.569 523.796 432.425 531.716 432.425V395.675C526.449 395.675 521.335 395.107 516.427 394.035L508.588 429.939ZM531.716 432.425C591.369 432.425 639.728 384.066 639.728 324.412H602.978C602.978 363.769 571.073 395.675 531.716 395.675V432.425ZM639.728 324.412C639.728 264.759 591.369 216.4 531.716 216.4V253.15C571.073 253.15 602.978 285.055 602.978 324.412H639.728ZM531.716 216.4C484.607 216.4 444.588 246.547 429.806 288.544L464.472 300.745C474.238 272.996 500.683 253.15 531.716 253.15V216.4ZM447.139 313.019L482.738 313.019L482.738 276.269L447.139 276.269L447.139 313.019ZM531.716 248.731C504.294 248.731 480.298 263.327 467.045 285.086L498.431 304.203C505.293 292.937 517.642 285.481 531.716 285.481V248.731ZM607.396 324.412C607.396 282.615 573.513 248.731 531.716 248.731V285.481C553.216 285.481 570.646 302.911 570.646 324.412H607.396Z" fill="black" mask="url(#path-3-inside-2_10_2)"/>
<path d="M531.564 318.272C535.014 318.272 537.17 322.006 535.445 324.994L457.228 460.47C455.503 463.458 451.19 463.458 449.465 460.47L371.248 324.994C369.523 322.006 371.68 318.272 375.13 318.272L531.564 318.272Z" fill="#B75400"/>
<path d="M1413.02 470.02V110.25H1536.3C1564.87 110.25 1589.2 120.302 1609.31 140.407C1629.41 160.159 1639.47 184.497 1639.47 213.419C1639.47 233.877 1634 252.395 1623.06 268.972C1612.48 285.55 1598.2 298.071 1580.21 306.536C1590.79 311.122 1598.55 319.763 1603.49 332.461L1653.75 465.788L1613.54 478.485L1561.16 339.868C1556.22 327.17 1551.29 319.94 1546.35 318.176C1543.53 317.118 1540 316.412 1535.77 316.06H1455.35V470.02H1413.02ZM1534.18 148.872H1455.35V279.025H1534.18C1551.46 279.025 1566.28 272.499 1578.62 259.449C1590.97 246.398 1597.14 231.055 1597.14 213.419C1597.14 195.784 1590.97 180.617 1578.62 167.919C1566.28 155.221 1551.46 148.872 1534.18 148.872Z" fill="#212121"/>
<path d="M1275.59 470.02V110.25H1317.91V470.02H1275.59Z" fill="#212121"/>
<path d="M1106.99 110.25L1228.15 470.02H1184.23L1149.32 364.205H1012.81L977.895 470.02H933.982L1055.14 110.25H1106.99ZM1081.06 156.809L1024.98 326.112H1136.62L1081.06 156.809Z" fill="#212121"/>
<path d="M762.012 470.02V110.25H952.479V148.343H804.338V271.088H924.438V309.182H804.338V470.02H762.012Z" fill="#212121"/>
<path d="M134.013 399.856C144.344 411.221 157.776 420.691 174.306 428.268C191.181 435.845 209.434 439.633 229.064 439.633C249.039 439.633 266.086 434.467 280.206 424.135C294.67 413.804 301.902 399.339 301.902 380.742C301.902 361.801 295.703 346.992 283.305 336.316C271.252 325.64 256.443 317.547 238.879 312.037C221.66 306.527 204.268 300.672 186.704 294.473C169.485 288.274 154.676 278.115 142.278 263.995C130.225 249.53 124.198 230.589 124.198 207.171C124.198 175.142 134.529 151.035 155.193 134.849C176.2 118.663 200.824 110.57 229.064 110.57C267.98 110.57 300.18 118.663 325.665 134.849L305.002 167.91C285.372 155.512 259.887 149.313 228.547 149.313C212.017 149.313 197.38 153.963 184.638 163.261C171.896 172.56 165.524 186.335 165.524 204.588C165.524 227.662 177.406 244.537 201.169 255.213C211.5 260.034 222.865 264.339 235.263 268.127C248.005 271.916 260.576 276.393 272.974 281.558C285.716 286.724 297.253 292.923 307.585 300.155C331.347 316.342 343.229 341.654 343.229 376.093C343.229 410.188 332.208 435.845 310.168 453.064C288.471 469.939 260.92 478.377 227.514 478.377C183.088 478.377 144 462.535 110.25 430.851L134.013 399.856Z" fill="#212121"/>
</svg>
